<mxfile host="Electron" agent="Mozilla/5.0 (Windows NT 10.0; Win64; x64) AppleWebKit/537.36 (KHTML, like Gecko) draw.io/27.0.9 Chrome/134.0.6998.205 Electron/35.4.0 Safari/537.36" version="27.0.9">
  <diagram id="xqjR4_-d1LhOvlCwRerg" name="Page-1">
    <mxGraphModel dx="868" dy="522" grid="1" gridSize="10" guides="1" tooltips="1" connect="1" arrows="1" fold="1" page="1" pageScale="1" pageWidth="827" pageHeight="1169" math="0" shadow="0">
      <root>
        <mxCell id="0" />
        <mxCell id="1" parent="0" />
        <mxCell id="DZ9Vvz9lxmzs25NVUHjE-1" value="" style="swimlane;startSize=0;fillColor=#fff2cc;strokeColor=#d6b656;" vertex="1" parent="1">
          <mxGeometry x="240" y="100" width="390" height="680" as="geometry" />
        </mxCell>
        <mxCell id="DZ9Vvz9lxmzs25NVUHjE-9" value="Search&amp;nbsp;&lt;div&gt;Properties&lt;/div&gt;" style="ellipse;whiteSpace=wrap;html=1;fillColor=#d5e8d4;strokeColor=#82b366;" vertex="1" parent="DZ9Vvz9lxmzs25NVUHjE-1">
          <mxGeometry x="31" y="20" width="99" height="50" as="geometry" />
        </mxCell>
        <mxCell id="DZ9Vvz9lxmzs25NVUHjE-12" value="Book&lt;div&gt;Property&lt;/div&gt;" style="ellipse;whiteSpace=wrap;html=1;fillColor=#d5e8d4;strokeColor=#82b366;" vertex="1" parent="DZ9Vvz9lxmzs25NVUHjE-1">
          <mxGeometry x="96" y="120" width="99" height="50" as="geometry" />
        </mxCell>
        <mxCell id="DZ9Vvz9lxmzs25NVUHjE-11" value="Make&amp;nbsp;&lt;div&gt;Payment&lt;/div&gt;" style="ellipse;whiteSpace=wrap;html=1;fillColor=#d5e8d4;strokeColor=#82b366;" vertex="1" parent="DZ9Vvz9lxmzs25NVUHjE-1">
          <mxGeometry x="210" y="40" width="99" height="50" as="geometry" />
        </mxCell>
        <mxCell id="DZ9Vvz9lxmzs25NVUHjE-10" value="Write&amp;nbsp;&lt;div&gt;Review&lt;/div&gt;" style="ellipse;whiteSpace=wrap;html=1;fillColor=#d5e8d4;strokeColor=#82b366;" vertex="1" parent="DZ9Vvz9lxmzs25NVUHjE-1">
          <mxGeometry x="150" y="200" width="99" height="50" as="geometry" />
        </mxCell>
        <mxCell id="DZ9Vvz9lxmzs25NVUHjE-18" value="&amp;lt;&amp;lt;extend&amp;gt;&amp;gt;" style="html=1;verticalAlign=bottom;labelBackgroundColor=none;endArrow=open;endFill=0;dashed=1;rounded=0;" edge="1" parent="DZ9Vvz9lxmzs25NVUHjE-1" source="DZ9Vvz9lxmzs25NVUHjE-12" target="DZ9Vvz9lxmzs25NVUHjE-10">
          <mxGeometry x="-0.0107" width="160" relative="1" as="geometry">
            <mxPoint x="111" y="320" as="sourcePoint" />
            <mxPoint x="271" y="320" as="targetPoint" />
            <mxPoint as="offset" />
          </mxGeometry>
        </mxCell>
        <mxCell id="DZ9Vvz9lxmzs25NVUHjE-19" value="&amp;lt;&amp;lt;include&amp;gt;&amp;gt;" style="html=1;verticalAlign=bottom;labelBackgroundColor=none;endArrow=open;endFill=0;dashed=1;rounded=0;entryX=0.562;entryY=1.073;entryDx=0;entryDy=0;entryPerimeter=0;" edge="1" parent="DZ9Vvz9lxmzs25NVUHjE-1" source="DZ9Vvz9lxmzs25NVUHjE-12" target="DZ9Vvz9lxmzs25NVUHjE-11">
          <mxGeometry width="160" relative="1" as="geometry">
            <mxPoint x="211" y="180" as="sourcePoint" />
            <mxPoint x="371" y="180" as="targetPoint" />
          </mxGeometry>
        </mxCell>
        <mxCell id="DZ9Vvz9lxmzs25NVUHjE-24" value="Register/Login" style="ellipse;whiteSpace=wrap;html=1;fillColor=#d5e8d4;strokeColor=#82b366;" vertex="1" parent="DZ9Vvz9lxmzs25NVUHjE-1">
          <mxGeometry x="101" y="260" width="99" height="50" as="geometry" />
        </mxCell>
        <mxCell id="DZ9Vvz9lxmzs25NVUHjE-23" value="Message user" style="ellipse;whiteSpace=wrap;html=1;fillColor=#d5e8d4;strokeColor=#82b366;" vertex="1" parent="DZ9Vvz9lxmzs25NVUHjE-1">
          <mxGeometry x="80" y="330" width="99" height="50" as="geometry" />
        </mxCell>
        <mxCell id="DZ9Vvz9lxmzs25NVUHjE-22" value="Create listing" style="ellipse;whiteSpace=wrap;html=1;fillColor=#d5e8d4;strokeColor=#82b366;" vertex="1" parent="DZ9Vvz9lxmzs25NVUHjE-1">
          <mxGeometry x="280" y="420" width="99" height="50" as="geometry" />
        </mxCell>
        <mxCell id="DZ9Vvz9lxmzs25NVUHjE-21" value="Manage&amp;nbsp;&lt;div&gt;Availability&lt;/div&gt;" style="ellipse;whiteSpace=wrap;html=1;fillColor=#d5e8d4;strokeColor=#82b366;" vertex="1" parent="DZ9Vvz9lxmzs25NVUHjE-1">
          <mxGeometry x="190" y="340" width="99" height="50" as="geometry" />
        </mxCell>
        <mxCell id="DZ9Vvz9lxmzs25NVUHjE-20" value="Respond to&lt;div&gt;Reviews&lt;/div&gt;" style="ellipse;whiteSpace=wrap;html=1;fillColor=#d5e8d4;strokeColor=#82b366;" vertex="1" parent="DZ9Vvz9lxmzs25NVUHjE-1">
          <mxGeometry x="260" y="220" width="99" height="50" as="geometry" />
        </mxCell>
        <mxCell id="DZ9Vvz9lxmzs25NVUHjE-33" value="Manage users" style="ellipse;whiteSpace=wrap;html=1;fillColor=#d5e8d4;strokeColor=#82b366;" vertex="1" parent="DZ9Vvz9lxmzs25NVUHjE-1">
          <mxGeometry x="190" y="520" width="99" height="50" as="geometry" />
        </mxCell>
        <mxCell id="DZ9Vvz9lxmzs25NVUHjE-32" value="Verify&lt;br&gt;Listings" style="ellipse;whiteSpace=wrap;html=1;fillColor=#d5e8d4;strokeColor=#82b366;" vertex="1" parent="DZ9Vvz9lxmzs25NVUHjE-1">
          <mxGeometry x="80" y="440" width="99" height="50" as="geometry" />
        </mxCell>
        <mxCell id="DZ9Vvz9lxmzs25NVUHjE-34" value="&amp;lt;&amp;lt;include&amp;gt;&amp;gt;" style="html=1;verticalAlign=bottom;labelBackgroundColor=none;endArrow=open;endFill=0;dashed=1;rounded=0;entryX=0.209;entryY=0.18;entryDx=0;entryDy=0;entryPerimeter=0;" edge="1" parent="DZ9Vvz9lxmzs25NVUHjE-1" source="DZ9Vvz9lxmzs25NVUHjE-21" target="DZ9Vvz9lxmzs25NVUHjE-22">
          <mxGeometry width="160" relative="1" as="geometry">
            <mxPoint x="200" y="480" as="sourcePoint" />
            <mxPoint x="360" y="480" as="targetPoint" />
          </mxGeometry>
        </mxCell>
        <mxCell id="DZ9Vvz9lxmzs25NVUHjE-31" value="View Reports" style="ellipse;whiteSpace=wrap;html=1;fillColor=#d5e8d4;strokeColor=#82b366;" vertex="1" parent="DZ9Vvz9lxmzs25NVUHjE-1">
          <mxGeometry x="70" y="580" width="99" height="50" as="geometry" />
        </mxCell>
        <mxCell id="DZ9Vvz9lxmzs25NVUHjE-2" value="Guest" style="shape=umlActor;verticalLabelPosition=bottom;verticalAlign=top;html=1;outlineConnect=0;" vertex="1" parent="1">
          <mxGeometry x="130" y="140" width="30" height="60" as="geometry" />
        </mxCell>
        <mxCell id="DZ9Vvz9lxmzs25NVUHjE-3" value="Admin" style="shape=umlActor;verticalLabelPosition=bottom;verticalAlign=top;html=1;outlineConnect=0;" vertex="1" parent="1">
          <mxGeometry x="100" y="500" width="30" height="60" as="geometry" />
        </mxCell>
        <mxCell id="DZ9Vvz9lxmzs25NVUHjE-4" value="Host" style="shape=umlActor;verticalLabelPosition=bottom;verticalAlign=top;html=1;outlineConnect=0;" vertex="1" parent="1">
          <mxGeometry x="700" y="380" width="30" height="60" as="geometry" />
        </mxCell>
        <mxCell id="DZ9Vvz9lxmzs25NVUHjE-13" value="AirBnB Clone Usecase Diagram" style="text;html=1;align=center;verticalAlign=middle;whiteSpace=wrap;rounded=0;fontStyle=1" vertex="1" parent="1">
          <mxGeometry x="329" y="60" width="231" height="30" as="geometry" />
        </mxCell>
        <mxCell id="DZ9Vvz9lxmzs25NVUHjE-14" value="" style="endArrow=none;html=1;rounded=0;entryX=0.02;entryY=0.713;entryDx=0;entryDy=0;entryPerimeter=0;" edge="1" parent="1" source="DZ9Vvz9lxmzs25NVUHjE-2" target="DZ9Vvz9lxmzs25NVUHjE-9">
          <mxGeometry width="50" height="50" relative="1" as="geometry">
            <mxPoint x="160" y="290" as="sourcePoint" />
            <mxPoint x="210" y="240" as="targetPoint" />
          </mxGeometry>
        </mxCell>
        <mxCell id="DZ9Vvz9lxmzs25NVUHjE-15" value="" style="endArrow=none;html=1;rounded=0;entryX=0.074;entryY=0.167;entryDx=0;entryDy=0;entryPerimeter=0;" edge="1" parent="1" source="DZ9Vvz9lxmzs25NVUHjE-2" target="DZ9Vvz9lxmzs25NVUHjE-12">
          <mxGeometry width="50" height="50" relative="1" as="geometry">
            <mxPoint x="160" y="300" as="sourcePoint" />
            <mxPoint x="210" y="250" as="targetPoint" />
          </mxGeometry>
        </mxCell>
        <mxCell id="DZ9Vvz9lxmzs25NVUHjE-16" value="" style="endArrow=none;html=1;rounded=0;entryX=0;entryY=0.5;entryDx=0;entryDy=0;" edge="1" parent="1" source="DZ9Vvz9lxmzs25NVUHjE-2" target="DZ9Vvz9lxmzs25NVUHjE-10">
          <mxGeometry width="50" height="50" relative="1" as="geometry">
            <mxPoint x="170" y="300" as="sourcePoint" />
            <mxPoint x="220" y="250" as="targetPoint" />
          </mxGeometry>
        </mxCell>
        <mxCell id="DZ9Vvz9lxmzs25NVUHjE-17" value="" style="endArrow=none;html=1;rounded=0;entryX=0;entryY=0.5;entryDx=0;entryDy=0;" edge="1" parent="1" source="DZ9Vvz9lxmzs25NVUHjE-2" target="DZ9Vvz9lxmzs25NVUHjE-11">
          <mxGeometry width="50" height="50" relative="1" as="geometry">
            <mxPoint x="160" y="320" as="sourcePoint" />
            <mxPoint x="210" y="270" as="targetPoint" />
          </mxGeometry>
        </mxCell>
        <mxCell id="DZ9Vvz9lxmzs25NVUHjE-25" value="" style="endArrow=none;html=1;rounded=0;exitX=0.795;exitY=0.94;exitDx=0;exitDy=0;exitPerimeter=0;" edge="1" parent="1" source="DZ9Vvz9lxmzs25NVUHjE-20" target="DZ9Vvz9lxmzs25NVUHjE-4">
          <mxGeometry width="50" height="50" relative="1" as="geometry">
            <mxPoint x="670" y="600" as="sourcePoint" />
            <mxPoint x="720" y="550" as="targetPoint" />
          </mxGeometry>
        </mxCell>
        <mxCell id="DZ9Vvz9lxmzs25NVUHjE-26" value="" style="endArrow=none;html=1;rounded=0;exitX=1;exitY=0.5;exitDx=0;exitDy=0;" edge="1" parent="1" source="DZ9Vvz9lxmzs25NVUHjE-21" target="DZ9Vvz9lxmzs25NVUHjE-4">
          <mxGeometry width="50" height="50" relative="1" as="geometry">
            <mxPoint x="680" y="560" as="sourcePoint" />
            <mxPoint x="730" y="510" as="targetPoint" />
          </mxGeometry>
        </mxCell>
        <mxCell id="DZ9Vvz9lxmzs25NVUHjE-27" value="" style="endArrow=none;html=1;rounded=0;exitX=1;exitY=1;exitDx=0;exitDy=0;" edge="1" parent="1" source="DZ9Vvz9lxmzs25NVUHjE-24" target="DZ9Vvz9lxmzs25NVUHjE-4">
          <mxGeometry width="50" height="50" relative="1" as="geometry">
            <mxPoint x="680" y="570" as="sourcePoint" />
            <mxPoint x="730" y="520" as="targetPoint" />
          </mxGeometry>
        </mxCell>
        <mxCell id="DZ9Vvz9lxmzs25NVUHjE-28" value="" style="endArrow=none;html=1;rounded=0;exitX=0.788;exitY=0.087;exitDx=0;exitDy=0;exitPerimeter=0;" edge="1" parent="1" source="DZ9Vvz9lxmzs25NVUHjE-22" target="DZ9Vvz9lxmzs25NVUHjE-4">
          <mxGeometry width="50" height="50" relative="1" as="geometry">
            <mxPoint x="680" y="590" as="sourcePoint" />
            <mxPoint x="730" y="540" as="targetPoint" />
          </mxGeometry>
        </mxCell>
        <mxCell id="DZ9Vvz9lxmzs25NVUHjE-29" value="" style="endArrow=none;html=1;rounded=0;exitX=1;exitY=0;exitDx=0;exitDy=0;" edge="1" parent="1" source="DZ9Vvz9lxmzs25NVUHjE-23" target="DZ9Vvz9lxmzs25NVUHjE-4">
          <mxGeometry width="50" height="50" relative="1" as="geometry">
            <mxPoint x="690" y="590" as="sourcePoint" />
            <mxPoint x="740" y="540" as="targetPoint" />
          </mxGeometry>
        </mxCell>
        <mxCell id="DZ9Vvz9lxmzs25NVUHjE-30" value="" style="endArrow=none;html=1;rounded=0;" edge="1" parent="1" source="DZ9Vvz9lxmzs25NVUHjE-24" target="DZ9Vvz9lxmzs25NVUHjE-2">
          <mxGeometry width="50" height="50" relative="1" as="geometry">
            <mxPoint x="120" y="320" as="sourcePoint" />
            <mxPoint x="170" y="270" as="targetPoint" />
          </mxGeometry>
        </mxCell>
        <mxCell id="DZ9Vvz9lxmzs25NVUHjE-35" value="" style="endArrow=none;html=1;rounded=0;exitX=0.067;exitY=0.367;exitDx=0;exitDy=0;exitPerimeter=0;" edge="1" parent="1" source="DZ9Vvz9lxmzs25NVUHjE-23" target="DZ9Vvz9lxmzs25NVUHjE-2">
          <mxGeometry width="50" height="50" relative="1" as="geometry">
            <mxPoint x="110" y="420" as="sourcePoint" />
            <mxPoint x="160" y="370" as="targetPoint" />
          </mxGeometry>
        </mxCell>
        <mxCell id="DZ9Vvz9lxmzs25NVUHjE-36" value="" style="endArrow=none;html=1;rounded=0;entryX=0;entryY=0.5;entryDx=0;entryDy=0;" edge="1" parent="1" source="DZ9Vvz9lxmzs25NVUHjE-3" target="DZ9Vvz9lxmzs25NVUHjE-32">
          <mxGeometry width="50" height="50" relative="1" as="geometry">
            <mxPoint x="160" y="560" as="sourcePoint" />
            <mxPoint x="210" y="510" as="targetPoint" />
          </mxGeometry>
        </mxCell>
        <mxCell id="DZ9Vvz9lxmzs25NVUHjE-37" value="" style="endArrow=none;html=1;rounded=0;exitX=0.02;exitY=0.327;exitDx=0;exitDy=0;exitPerimeter=0;" edge="1" parent="1" source="DZ9Vvz9lxmzs25NVUHjE-33" target="DZ9Vvz9lxmzs25NVUHjE-3">
          <mxGeometry width="50" height="50" relative="1" as="geometry">
            <mxPoint x="70" y="700" as="sourcePoint" />
            <mxPoint x="120" y="650" as="targetPoint" />
          </mxGeometry>
        </mxCell>
        <mxCell id="DZ9Vvz9lxmzs25NVUHjE-38" value="" style="endArrow=none;html=1;rounded=0;exitX=-0.013;exitY=0.367;exitDx=0;exitDy=0;exitPerimeter=0;" edge="1" parent="1" source="DZ9Vvz9lxmzs25NVUHjE-31" target="DZ9Vvz9lxmzs25NVUHjE-3">
          <mxGeometry width="50" height="50" relative="1" as="geometry">
            <mxPoint x="110" y="730" as="sourcePoint" />
            <mxPoint x="160" y="680" as="targetPoint" />
          </mxGeometry>
        </mxCell>
      </root>
    </mxGraphModel>
  </diagram>
</mxfile>
